<svg aria-hidden="true" xmlns="http://www.w3.org/2000/svg" xmlns:xlink="http://www.w3.org/1999/xlink"><symbol viewBox="0 0 13 23" fill="none" id="fb" xmlns="http://www.w3.org/2000/svg">
<path d="M11.5112 12.9375L12.15 8.77504H8.15601V6.07389C8.15601 4.93512 8.71394 3.8251 10.5027 3.8251H12.3185V0.281211C12.3185 0.281211 10.6707 0 9.09533 0C5.80615 0 3.65619 1.99363 3.65619 5.60266V8.77504H0V12.9375H3.65619V23H8.15601V12.9375H11.5112Z" fill="currentColor"/>
</symbol><symbol viewBox="0 0 20 20" id="instagram" xmlns="http://www.w3.org/2000/svg">
<path d="M10.0022 4.87117C7.16453 4.87117 4.87563 7.16007 4.87563 9.99777C4.87563 12.8355 7.16453 15.1244 10.0022 15.1244C12.8399 15.1244 15.1288 12.8355 15.1288 9.99777C15.1288 7.16007 12.8399 4.87117 10.0022 4.87117ZM10.0022 13.3307C8.16843 13.3307 6.66927 11.836 6.66927 9.99777C6.66927 8.15951 8.16397 6.66481 10.0022 6.66481C11.8405 6.66481 13.3352 8.15951 13.3352 9.99777C13.3352 11.836 11.836 13.3307 10.0022 13.3307ZM16.5343 4.66146C16.5343 5.32627 15.9989 5.85722 15.3385 5.85722C14.6737 5.85722 14.1428 5.32181 14.1428 4.66146C14.1428 4.00112 14.6782 3.4657 15.3385 3.4657C15.9989 3.4657 16.5343 4.00112 16.5343 4.66146ZM19.9297 5.87507C19.8539 4.27329 19.488 2.85443 18.3146 1.68544C17.1456 0.516453 15.7267 0.150586 14.1249 0.0702733C12.4741 -0.0234244 7.52593 -0.0234244 5.87507 0.0702733C4.27775 0.146124 2.8589 0.511991 1.68544 1.68098C0.511991 2.84997 0.150586 4.26882 0.0702733 5.87061C-0.0234244 7.52147 -0.0234244 12.4696 0.0702733 14.1205C0.146124 15.7223 0.511991 17.1411 1.68544 18.3101C2.8589 19.4791 4.27328 19.845 5.87507 19.9253C7.52593 20.019 12.4741 20.019 14.1249 19.9253C15.7267 19.8494 17.1456 19.4835 18.3146 18.3101C19.4835 17.1411 19.8494 15.7223 19.9297 14.1205C20.0234 12.4696 20.0234 7.52593 19.9297 5.87507ZM17.797 15.8918C17.449 16.7663 16.7752 17.44 15.8963 17.7925C14.58 18.3146 11.4568 18.1941 10.0022 18.1941C8.54769 18.1941 5.41997 18.3101 4.1082 17.7925C3.23369 17.4445 2.55996 16.7708 2.20747 15.8918C1.68544 14.5756 1.80591 11.4523 1.80591 9.99777C1.80591 8.54322 1.68991 5.4155 2.20747 4.10374C2.55549 3.22922 3.22922 2.55549 4.1082 2.20301C5.42443 1.68098 8.54769 1.80145 10.0022 1.80145C11.4568 1.80145 14.5845 1.68544 15.8963 2.20301C16.7708 2.55103 17.4445 3.22476 17.797 4.10374C18.319 5.41997 18.1985 8.54322 18.1985 9.99777C18.1985 11.4523 18.319 14.58 17.797 15.8918Z" fill="currentColor"/>
</symbol><symbol viewBox="0 0 20 20"  id="spotify" xmlns="http://www.w3.org/2000/svg">
<path d="M10 0C4.47984 0 0 4.47984 0 10C0 15.5202 4.47984 20 10 20C15.5202 20 20 15.5202 20 10C20 4.47984 15.5202 0 10 0ZM14.0605 14.7137C13.8911 14.7137 13.7863 14.6613 13.629 14.5685C11.1129 13.0524 8.18548 12.9879 5.29435 13.5806C5.1371 13.621 4.93145 13.6855 4.81452 13.6855C4.42339 13.6855 4.17742 13.375 4.17742 13.0484C4.17742 12.6331 4.42339 12.4355 4.72581 12.371C8.02823 11.6411 11.4032 11.7056 14.2823 13.4274C14.5282 13.5847 14.6734 13.7258 14.6734 14.0927C14.6734 14.4597 14.3871 14.7137 14.0605 14.7137ZM15.1452 12.0685C14.9355 12.0685 14.7944 11.9758 14.6492 11.8992C12.129 10.4073 8.37097 9.80645 5.02823 10.7137C4.83468 10.7661 4.72984 10.8185 4.54839 10.8185C4.11694 10.8185 3.76613 10.4677 3.76613 10.0363C3.76613 9.60484 3.97581 9.31855 4.39113 9.20161C5.5121 8.8871 6.65726 8.65323 8.33468 8.65323C10.9516 8.65323 13.4798 9.30242 15.4718 10.4879C15.7984 10.6815 15.9274 10.9315 15.9274 11.2823C15.9234 11.7177 15.5847 12.0685 15.1452 12.0685ZM16.3952 8.99597C16.1855 8.99597 16.0565 8.94355 15.875 8.83871C13.004 7.125 7.87097 6.71371 4.54839 7.64113C4.40323 7.68145 4.22177 7.74597 4.02823 7.74597C3.49597 7.74597 3.08871 7.33065 3.08871 6.79435C3.08871 6.24597 3.42742 5.93548 3.79032 5.83065C5.20968 5.41532 6.79839 5.21774 8.52823 5.21774C11.4718 5.21774 14.5565 5.83065 16.8105 7.14516C17.125 7.32661 17.3306 7.57661 17.3306 8.05645C17.3306 8.60484 16.8871 8.99597 16.3952 8.99597Z" fill="currentColor"/>
</symbol><symbol viewBox="0 0 20 17"  id="twitter" xmlns="http://www.w3.org/2000/svg">
<path d="M17.9442 4.04822C17.9569 4.22588 17.9569 4.40357 17.9569 4.58123C17.9569 10 13.8326 16.2437 6.29444 16.2437C3.97209 16.2437 1.81473 15.5711 0 14.4036C0.329962 14.4417 0.64719 14.4544 0.989848 14.4544C2.90607 14.4544 4.67006 13.8072 6.0787 12.7031C4.27666 12.665 2.7665 11.4848 2.24618 9.86043C2.50001 9.89848 2.7538 9.92387 3.02032 9.92387C3.38833 9.92387 3.75638 9.87309 4.099 9.7843C2.22083 9.40355 0.812152 7.75382 0.812152 5.76143V5.71069C1.35782 6.01526 1.99239 6.20561 2.66493 6.23096C1.56087 5.4949 0.837542 4.23857 0.837542 2.81724C0.837542 2.05583 1.04055 1.35786 1.3959 0.748714C3.41369 3.23603 6.4467 4.86037 9.8477 5.03807C9.78426 4.7335 9.74617 4.41627 9.74617 4.099C9.74617 1.84009 11.5736 0 13.8452 0C15.0254 0 16.0914 0.494924 16.8401 1.29442C17.7665 1.11676 18.6548 0.774105 19.4416 0.304572C19.137 1.25637 18.4898 2.05587 17.6396 2.56345C18.4645 2.47466 19.264 2.24618 20 1.92895C19.4417 2.7411 18.7437 3.46443 17.9442 4.04822Z" fill="currentColor"/>
</symbol><symbol viewBox="0 0 20 15" id="youtube" xmlns="http://www.w3.org/2000/svg">
<path d="M19.5821 2.2003C19.3521 1.33421 18.6744 0.652111 17.8139 0.420629C16.2542 0 10 0 10 0C10 0 3.74586 0 2.18613 0.420629C1.32565 0.652148 0.647936 1.33421 0.417919 2.2003C0 3.77014 0 7.04545 0 7.04545C0 7.04545 0 10.3208 0.417919 11.8906C0.647936 12.7567 1.32565 13.4104 2.18613 13.6419C3.74586 14.0625 10 14.0625 10 14.0625C10 14.0625 16.2541 14.0625 17.8139 13.6419C18.6744 13.4104 19.3521 12.7567 19.5821 11.8906C20 10.3208 20 7.04545 20 7.04545C20 7.04545 20 3.77014 19.5821 2.2003ZM7.95453 10.0192V4.07171L13.1818 7.04552L7.95453 10.0192Z" fill="currentColor"/>
</symbol></svg>